<?xml version="1.0" encoding="utf-8"?>
<!-- Generator: Adobe Illustrator 25.4.0, SVG Export Plug-In . SVG Version: 6.00 Build 0)  -->
<svg version="1.1" id="Calque_1" xmlns="http://www.w3.org/2000/svg" xmlns:xlink="http://www.w3.org/1999/xlink" x="0px" y="0px"
	 viewBox="0 0 512 512" style="enable-background:new 0 0 512 512;" xml:space="preserve">
<style type="text/css">
	.st0{fill:#556EE6;}
	.st1{fill:#EB8153;}
</style>
<path class="st0" d="M260.8,291.5c-8.6,27.7-16.2,54.3-23.8,80.1c-1.9,6.7-3.8,14.3-5.7,21c-6.7,28.6-36.2,45.8-64.8,39.1
	c-18.1-4.8-33.4-18.1-38.1-37.2c-14.3-42.9-28.6-86.8-42-130.6c-6.7-17.2-1.9-36.2,11.4-48.6c12.4-13.3,33.4-15.3,46.7-2.9
	c1.9,1.9,3.8,3.8,5.7,5.7c4.8,6.7,8.6,13.3,11.4,21.9c5.7,17.2,10.5,35.3,16.2,54.3c1-2.9,1.9-3.8,1.9-5.7
	c10.5-31.5,21-62,32.4-93.4c9.5-29.6,40-45.8,69.6-36.2c15.3,4.8,27.7,17.2,32.4,32.4c9.5,31.5,19.1,62.9,28.6,94.4
	c1,1.9,1,2.9,1.9,5.7c2.9-7.6,4.8-14.3,7.6-21c12.4-36.2,24.8-72.5,37.2-109.6c3.8-12.4,7.6-24.8,12.4-37.2
	c4.8-15.3,18.1-25.7,34.3-27.7c21-1.9,38.1,13.3,40,34.3c0,1,0,1.9,0,2.9c0,6.7,0,12.4-1.9,18.1c-26.7,82-54.3,163-80.1,245
	c-12.4,40-54.3,41-78.2,22.9c-7.6-5.7-13.3-14.3-16.2-23.8c-11.4-33.4-22.9-66.7-34.3-99.2C262.7,295.3,262.7,294.4,260.8,291.5z"/>
<path class="st1" d="M88.2,78.9c29.6,0,53.4,22.9,53.4,52.4s-22.9,53.4-52.4,53.4c-28.6,1-53.4-22.9-53.4-52.4l0,0
	C35.8,102.7,58.6,78.9,88.2,78.9L88.2,78.9z M60.5,132.3c0,15.3,12.4,27.7,28.6,27.7c15.3,0,27.7-12.4,27.7-28.6
	c0-15.3-12.4-27.7-27.7-27.7C72.9,103.7,60.5,116.1,60.5,132.3C60.5,131.3,60.5,132.3,60.5,132.3z"/>
</svg>
