<?xml version="1.0" encoding="utf-8"?>
<!-- Generator: Adobe Illustrator 25.4.0, SVG Export Plug-In . SVG Version: 6.00 Build 0)  -->
<svg version="1.1" id="Calque_1" xmlns="http://www.w3.org/2000/svg" xmlns:xlink="http://www.w3.org/1999/xlink" x="0px" y="0px"
	 viewBox="0 0 109.5 44.6" style="enable-background:new 0 0 109.5 44.6;" xml:space="preserve">
<style type="text/css">
	.st0{fill:#556EE6;}
	.st1{fill:#EB8153;}
	.st2{fill:#FFFFFF;}
</style>
<path class="st0" d="M24.6,24.3c-0.9,2.9-1.7,5.7-2.5,8.4c-0.2,0.7-0.4,1.5-0.6,2.2c-0.7,3-3.8,4.8-6.8,4.1c-1.9-0.5-3.5-1.9-4-3.9
	c-1.5-4.5-3-9.1-4.4-13.7c-0.7-1.8-0.2-3.8,1.2-5.1c1.3-1.4,3.5-1.6,4.9-0.3c0.2,0.2,0.4,0.4,0.6,0.6c0.5,0.7,0.9,1.4,1.2,2.3
	c0.6,1.8,1.1,3.7,1.7,5.7c0.1-0.3,0.2-0.4,0.2-0.6c1.1-3.3,2.2-6.5,3.4-9.8c1-3.1,4.2-4.8,7.3-3.8c1.6,0.5,2.9,1.8,3.4,3.4
	c1,3.3,2,6.6,3,9.9c0.1,0.2,0.1,0.3,0.2,0.6c0.3-0.8,0.5-1.5,0.8-2.2c1.3-3.8,2.6-7.6,3.9-11.5c0.4-1.3,0.8-2.6,1.3-3.9
	C39.9,5.1,41.3,4,43,3.8c2.2-0.2,4,1.4,4.2,3.6c0,0.1,0,0.2,0,0.3c0,0.7,0,1.3-0.2,1.9c-2.8,8.6-5.7,17.1-8.4,25.7
	c-1.3,4.2-5.7,4.3-8.2,2.4c-0.8-0.6-1.4-1.5-1.7-2.5c-1.2-3.5-2.4-7-3.6-10.4C24.8,24.7,24.8,24.6,24.6,24.3z"/>
<path class="st1" d="M6.5,2c3.1,0,5.6,2.4,5.6,5.5s-2.4,5.6-5.5,5.6C3.6,13.2,1,10.7,1,7.6l0,0C1,4.5,3.4,2,6.5,2L6.5,2z M3.6,7.6
	c0,1.6,1.3,2.9,3,2.9c1.6,0,2.9-1.3,2.9-3c0-1.6-1.3-2.9-2.9-2.9C4.9,4.6,3.6,5.9,3.6,7.6C3.6,7.5,3.6,7.6,3.6,7.6z"/>
<path class="st2" d="M56.1,23.4c0.2-0.2,0.5-0.2,0.8-0.2c0.4,0,0.8,0.1,1.1,0.4s0.5,0.6,0.5,1c0,0.2-0.1,0.4-0.2,0.6L51,40.7
	c-0.3,0.6-0.8,0.9-1.4,0.9c-0.4,0-0.8-0.1-1.1-0.4s-0.5-0.6-0.5-1c0-0.2,0.1-0.4,0.2-0.7l1.8-3.9l-5-10.4c-0.1-0.2-0.1-0.4-0.1-0.6
	c0-0.4,0.2-0.8,0.5-1.1s0.8-0.4,1.2-0.4c0.3,0,0.6,0.1,0.8,0.2c0.3,0.2,0.4,0.4,0.6,0.7l3.8,8.3l3.8-8.3
	C55.6,23.8,55.8,23.5,56.1,23.4z"/>
<path class="st2" d="M62.7,36c-1-0.6-1.8-1.3-2.3-2.4c-0.5-1-0.8-2.2-0.8-3.6s0.3-2.6,0.9-3.6c0.6-1.1,1.4-1.9,2.4-2.4
	s2.2-0.9,3.5-0.9c0.7,0,1.4,0.1,2.1,0.3c0.7,0.2,1.3,0.5,1.9,0.8c0.6,0.4,0.9,0.9,0.9,1.4c0,0.4-0.1,0.7-0.3,1S70.6,27,70.3,27
	c-0.2,0-0.4,0-0.6-0.1s-0.4-0.2-0.6-0.3c-0.4-0.2-0.8-0.4-1.1-0.6c-0.4-0.1-0.8-0.2-1.2-0.2c-1.1,0-2,0.4-2.6,1.1s-0.9,1.8-0.9,3.1
	c0,1.3,0.3,2.4,0.9,3.1c0.6,0.7,1.5,1.1,2.6,1.1c0.5,0,0.9-0.1,1.2-0.2c0.4-0.1,0.7-0.3,1.2-0.6c0.3-0.2,0.5-0.3,0.7-0.4
	s0.4-0.1,0.6-0.1c0.3,0,0.5,0.1,0.7,0.4s0.3,0.6,0.3,0.9c0,0.3-0.1,0.6-0.2,0.8s-0.4,0.4-0.7,0.6c-0.6,0.4-1.2,0.6-1.9,0.9
	c-0.7,0.2-1.5,0.3-2.3,0.3C64.8,36.8,63.7,36.5,62.7,36z"/>
<path class="st2" d="M75.9,36c-1-0.6-1.8-1.4-2.4-2.4s-0.8-2.3-0.8-3.6s0.3-2.6,0.8-3.6c0.6-1,1.3-1.8,2.4-2.4
	c1-0.6,2.2-0.8,3.5-0.8s2.5,0.3,3.6,0.8c1,0.6,1.8,1.4,2.3,2.4s0.8,2.2,0.8,3.6s-0.3,2.6-0.8,3.6S84,35.4,83,36
	c-1,0.6-2.2,0.8-3.6,0.8S76.9,36.5,75.9,36z M82,33.1c0.6-0.7,0.9-1.8,0.9-3.2c0-1.4-0.3-2.4-0.9-3.2c-0.6-0.7-1.4-1.1-2.5-1.1
	S77.6,26,77,26.7s-0.9,1.8-0.9,3.2c0,1.4,0.3,2.5,0.9,3.2s1.4,1.1,2.5,1.1S81.4,33.8,82,33.1z"/>
<path class="st2" d="M89.2,20.2c-0.4-0.3-0.5-0.8-0.5-1.3s0.2-1,0.5-1.3c0.4-0.3,0.8-0.5,1.5-0.5c0.6,0,1.1,0.2,1.4,0.5
	c0.4,0.3,0.6,0.8,0.6,1.3s-0.2,1-0.5,1.3c-0.4,0.3-0.8,0.5-1.5,0.5S89.6,20.5,89.2,20.2z M89.5,36.3C89.2,36,89,35.6,89,35.1V24.7
	c0-0.5,0.2-0.9,0.5-1.2c0.3-0.3,0.7-0.4,1.2-0.4s0.9,0.1,1.2,0.4c0.3,0.3,0.5,0.7,0.5,1.2v10.4c0,0.5-0.2,0.9-0.5,1.2
	s-0.7,0.4-1.2,0.4C90.2,36.8,89.8,36.6,89.5,36.3z"/>
<path class="st2" d="M107,24.4c0.8,0.9,1.2,2.3,1.2,4.1v6.6c0,0.5-0.1,0.9-0.4,1.2s-0.7,0.4-1.2,0.4s-0.9-0.1-1.2-0.4
	c-0.3-0.3-0.5-0.7-0.5-1.2v-6.5c0-1-0.2-1.8-0.6-2.2c-0.4-0.5-1-0.7-1.8-0.7c-1,0-1.8,0.3-2.3,0.9c-0.6,0.6-0.9,1.4-0.9,2.5v6
	c0,0.5-0.2,0.9-0.5,1.2s-0.7,0.4-1.2,0.4s-0.9-0.1-1.2-0.4C96.1,36,96,35.6,96,35.1V24.7c0-0.5,0.2-0.8,0.5-1.1
	c0.3-0.3,0.7-0.4,1.2-0.4s0.8,0.1,1.1,0.4c0.3,0.3,0.4,0.6,0.4,1.1v0.7c0.5-0.7,1.1-1.3,1.8-1.7c0.8-0.4,1.6-0.6,2.6-0.6
	C105.1,23.1,106.3,23.5,107,24.4z"/>
</svg>
